<svg xmlns="http://www.w3.org/2000/svg" xmlns:xlink="http://www.w3.org/1999/xlink" viewBox="0 0 91.552 30.501">
  <defs>
    <style>
      .cls-1 {
        fill: none;
      }

      .cls-2 {
        fill: #ff3c1f;
      }

      .cls-3 {
        clip-path: url(#clip-path);
      }

      .cls-4 {
        fill: #fff;
      }
    </style>
    <clipPath id="clip-path">
      <path id="Tracé_69" data-name="Tracé 69" class="cls-1" d="M391.759-102.307h79.054v-22.838H391.759Z" transform="translate(-391.759 125.145)"/>
    </clipPath>
  </defs>
  <g id="Groupe_31" data-name="Groupe 31" transform="translate(-2336 -1420)">
    <path id="Soustraction_3" data-name="Soustraction 3" class="cls-2" d="M105.545,42.5H22.18L52.68,12h52.872l-.008,30.5h0Z" transform="translate(2322 1408)"/>
    <g id="Groupe_28" data-name="Groupe 28" class="cls-3" transform="translate(2336 1423.554)">
      <g id="Groupe_19" data-name="Groupe 19" transform="translate(37.592 0)">
        <path id="Tracé_59" data-name="Tracé 59" class="cls-4" d="M-6.476-19.512A2.681,2.681,0,0,0-4.3-20.478a4.442,4.442,0,0,0,.8-2.9,4.442,4.442,0,0,0-.8-2.9,2.68,2.68,0,0,0-2.172-.966,2.678,2.678,0,0,0-2.172.966,4.441,4.441,0,0,0-.805,2.9,4.441,4.441,0,0,0,.805,2.9,2.68,2.68,0,0,0,2.172.966m2.789-16.315,3.648-3.644v16.124a7.8,7.8,0,0,1-.483,2.83A5.8,5.8,0,0,1-1.89-18.412,5.945,5.945,0,0,1-4.022-17.1a7.957,7.957,0,0,1-2.749.457,6.157,6.157,0,0,1-2.629-.55,5.853,5.853,0,0,1-2-1.5,6.726,6.726,0,0,1-1.261-2.266A8.847,8.847,0,0,1-13.1-23.8a7.32,7.32,0,0,1,.442-2.615A5.648,5.648,0,0,1-11.411-28.4a5.5,5.5,0,0,1,1.917-1.261,6.656,6.656,0,0,1,2.481-.442,5.948,5.948,0,0,1,1.838.282,3.666,3.666,0,0,1,1.488.9Z" transform="translate(13.101 39.471)"/>
      </g>
      <g id="Groupe_20" data-name="Groupe 20" transform="translate(69.875 21.693)">
        <path id="Tracé_60" data-name="Tracé 60" class="cls-4" d="M-.513-1.119a.477.477,0,0,1-.379-.169.609.609,0,0,1-.145-.41.584.584,0,0,1,.145-.4.492.492,0,0,1,.386-.162.485.485,0,0,1,.38.162.584.584,0,0,1,.145.4.609.609,0,0,1-.145.41.485.485,0,0,1-.386.169" transform="translate(1.037 2.264)"/>
      </g>
      <g id="Groupe_21" data-name="Groupe 21" transform="translate(71.744 17.928)">
        <path id="Tracé_61" data-name="Tracé 61" class="cls-4" d="M-1.618-4.078a.689.689,0,0,0,.559-.248,1.144,1.144,0,0,0,.207-.745,1.143,1.143,0,0,0-.207-.744.689.689,0,0,0-.559-.248.689.689,0,0,0-.559.248,1.143,1.143,0,0,0-.207.744,1.144,1.144,0,0,0,.207.745.689.689,0,0,0,.559.248M-3.273-8.25h.938V-6.5a.932.932,0,0,1,.383-.231A1.518,1.518,0,0,1-1.48-6.8a1.723,1.723,0,0,1,.638.114,1.416,1.416,0,0,1,.493.324,1.454,1.454,0,0,1,.321.51,1.886,1.886,0,0,1,.114.673,2.28,2.28,0,0,1-.114.731,1.734,1.734,0,0,1-.324.583,1.512,1.512,0,0,1-.514.386,1.586,1.586,0,0,1-.676.141,2.041,2.041,0,0,1-.707-.117A1.525,1.525,0,0,1-2.8-3.8a1.5,1.5,0,0,1-.352-.541,2.012,2.012,0,0,1-.124-.728Z" transform="translate(3.273 8.25)"/>
      </g>
      <g id="Groupe_22" data-name="Groupe 22" transform="translate(75.709 19.376)">
        <path id="Tracé_62" data-name="Tracé 62" class="cls-4" d="M-2.346-1.193a.551.551,0,0,0-.152-.39.605.605,0,0,0-.462-.162.868.868,0,0,0-.518.148.862.862,0,0,0-.3.4ZM-1.429.951l-.165.031c-.065.011-.145.021-.242.031s-.211.017-.345.024-.289.01-.469.01A3.6,3.6,0,0,1-3.5.955a1.827,1.827,0,0,1-.662-.3A1.354,1.354,0,0,1-4.594.11a2.015,2.015,0,0,1-.152-.827,1.613,1.613,0,0,1,.131-.638A1.684,1.684,0,0,1-4.246-1.9a1.819,1.819,0,0,1,.569-.376,1.856,1.856,0,0,1,.738-.142,1.905,1.905,0,0,1,.59.09,1.349,1.349,0,0,1,.49.276,1.329,1.329,0,0,1,.334.472A1.726,1.726,0,0,1-1.4-.89v.145c0,.055,0,.108-.007.158H-3.863a.98.98,0,0,0,.117.421A.715.715,0,0,0-3.484.1a1.147,1.147,0,0,0,.4.135A3.3,3.3,0,0,0-2.56.269,6.956,6.956,0,0,0-1.829.238a2.584,2.584,0,0,0,.4-.066Z" transform="translate(4.746 2.414)"/>
      </g>
      <g id="Groupe_23" data-name="Groupe 23" transform="translate(0 3.732)">
        <path id="Tracé_63" data-name="Tracé 63" class="cls-4" d="M-6.293-15.863a2.68,2.68,0,0,0,2.172-.966,4.441,4.441,0,0,0,.805-2.9,4.441,4.441,0,0,0-.805-2.9,2.678,2.678,0,0,0-2.172-.966,2.68,2.68,0,0,0-2.172.966,4.442,4.442,0,0,0-.8,2.9,4.442,4.442,0,0,0,.8,2.9,2.681,2.681,0,0,0,2.172.966M-12.73-32.09h3.648v6.812a3.659,3.659,0,0,1,1.488-.9,5.945,5.945,0,0,1,1.838-.282,6.658,6.658,0,0,1,2.481.442,5.507,5.507,0,0,1,1.918,1.261A5.654,5.654,0,0,1-.111-22.77a7.32,7.32,0,0,1,.442,2.615,8.847,8.847,0,0,1-.442,2.843,6.735,6.735,0,0,1-1.261,2.266,5.863,5.863,0,0,1-2,1.5A6.159,6.159,0,0,1-6-12.993a7.951,7.951,0,0,1-2.749-.457,5.945,5.945,0,0,1-2.132-1.314,5.8,5.8,0,0,1-1.368-2.106,7.8,7.8,0,0,1-.483-2.83Z" transform="translate(12.73 32.09)"/>
      </g>
      <g id="Groupe_24" data-name="Groupe 24" transform="translate(15.71 9.687)">
        <path id="Tracé_64" data-name="Tracé 64" class="cls-4" d="M0-9.481v-9.7H3.648v6.051Z" transform="translate(0 19.18)"/>
      </g>
      <g id="Groupe_25" data-name="Groupe 25" transform="translate(15.522 3.732)">
        <path id="Tracé_65" data-name="Tracé 65" class="cls-4" d="M-1.993-4.353a1.847,1.847,0,0,1-1.475-.657,2.367,2.367,0,0,1-.563-1.6,2.269,2.269,0,0,1,.563-1.569,1.916,1.916,0,0,1,1.5-.63,1.887,1.887,0,0,1,1.475.63A2.269,2.269,0,0,1,.072-6.606a2.367,2.367,0,0,1-.563,1.6,1.878,1.878,0,0,1-1.5.657" transform="translate(4.031 8.805)"/>
      </g>
      <g id="Groupe_26" data-name="Groupe 26" transform="translate(22.033 0)">
        <path id="Tracé_66" data-name="Tracé 66" class="cls-4" d="M-6.476-19.512A2.681,2.681,0,0,0-4.3-20.478a4.442,4.442,0,0,0,.8-2.9,4.442,4.442,0,0,0-.8-2.9,2.68,2.68,0,0,0-2.172-.966,2.678,2.678,0,0,0-2.172.966,4.441,4.441,0,0,0-.805,2.9,4.441,4.441,0,0,0,.805,2.9,2.68,2.68,0,0,0,2.172.966m2.789-16.315,3.648-3.644v16.124a7.8,7.8,0,0,1-.483,2.83A5.8,5.8,0,0,1-1.89-18.412,5.945,5.945,0,0,1-4.022-17.1a7.956,7.956,0,0,1-2.749.457,6.156,6.156,0,0,1-2.628-.55,5.853,5.853,0,0,1-2-1.5,6.718,6.718,0,0,1-1.261-2.266A8.847,8.847,0,0,1-13.1-23.8a7.32,7.32,0,0,1,.442-2.615A5.647,5.647,0,0,1-11.412-28.4a5.5,5.5,0,0,1,1.918-1.261,6.656,6.656,0,0,1,2.481-.442,5.948,5.948,0,0,1,1.838.282,3.666,3.666,0,0,1,1.488.9Z" transform="translate(13.101 39.471)"/>
      </g>
      <path id="Tracé_67" data-name="Tracé 67" class="cls-4" d="M498.85-111.81H502.5v12.821H498.85Zm0,12.821,1.851-14.322a1.848,1.848,0,0,1-1.475-.657,2.367,2.367,0,0,1-.563-1.6,2.268,2.268,0,0,1,.563-1.569,1.916,1.916,0,0,1,1.5-.63,1.887,1.887,0,0,1,1.476.63,2.27,2.27,0,0,1,.563,1.569,2.369,2.369,0,0,1-.563,1.6,1.879,1.879,0,0,1-1.5.657" transform="translate(-444.605 121.496)"/>
      <g id="Groupe_27" data-name="Groupe 27" transform="translate(61.192 6.182)">
        <path id="Tracé_68" data-name="Tracé 68" class="cls-4" d="M-7.106-15.994a3.756,3.756,0,0,1-.885.214A8.558,8.558,0,0,1-9.2-15.7a6.079,6.079,0,0,1-2.106-.348,4.619,4.619,0,0,1-1.636-1.006A4.449,4.449,0,0,1-14-18.676a6.106,6.106,0,0,1-.376-2.226V-32.355h3.647v3.494h3.219v2.817h-3.219V-20.9a2.3,2.3,0,0,0,.5,1.515,1.718,1.718,0,0,0,1.408.6,4.75,4.75,0,0,0,.952-.081,5.726,5.726,0,0,0,.765-.214Z" transform="translate(14.374 32.355)"/>
      </g>
    </g>
  </g>
</svg>
